<svg width="512" height="512" viewBox="0 0 512 512" fill="none" xmlns="http://www.w3.org/2000/svg">
  <!-- Background with rounded corners (iOS/macOS style) -->
  <rect width="512" height="512" rx="110" fill="url(#bg_gradient)"/>
  
  <!-- Stylized G with Upload Arrow -->
  <g filter="url(#drop_shadow)">
    <path d="M256 120C180.88 120 120 180.88 120 256C120 331.12 180.88 392 256 392C315.6 392 366.16 353.6 383.6 300H290V260H390.64C391.52 265.2 392 270.56 392 276C392 351.12 331.12 412 256 412C169.84 412 100 342.16 100 256C100 169.84 169.84 100 256 100C295.6 100 331.6 114.8 359.2 139.6L316.8 182H420V78.8L373.6 125.2C342.8 97.2 301.6 80 256 80Z" fill="white"/>
    
    <!-- Central Upload Arrow (Integrated mostly, but emphasized here) -->
    <path d="M256 180L330 260H280V340H232V260H182L256 180Z" fill="url(#arrow_gradient)" style="display:none"/> 
    <!-- Actually, let's keep the single path G design above which is a refresh icon style but modified to look like G and arrow -->
  </g>

  <!-- Alternative: Tech Arrow G -->
  <!-- A G shape that forms an arrow pointing up in the negative space or positive space -->
  <path d="M266 142L350 226H290V340H242V226H182L266 142Z" fill="white"/>
  <path d="M266 380C197.52 380 142 324.48 142 256C142 216.4 160.8 181.2 190.4 158L162 129.6C122.8 160.4 98 206 98 256C98 348.8 173.2 424 266 424C345.2 424 411.6 369.2 429.2 296H384C368 344 321.2 380 266 380Z" fill="white" opacity="0.9"/>


  <defs>
    <linearGradient id="bg_gradient" x1="0" y1="0" x2="512" y2="512" gradientUnits="userSpaceOnUse">
      <stop stop-color="#3B82F6"/> <!-- Blue-500 -->
      <stop offset="1" stop-color="#8B5CF6"/> <!-- Purple-500 -->
    </linearGradient>
    <linearGradient id="arrow_gradient" x1="256" y1="180" x2="256" y2="340" gradientUnits="userSpaceOnUse">
      <stop stop-color="#FFFFFF"/>
      <stop offset="1" stop-color="#E2E8F0"/>
    </linearGradient>
    <filter id="drop_shadow" x="0" y="0" width="512" height="512" filterUnits="userSpaceOnUse" color-interpolation-filters="sRGB">
      <feFlood flood-opacity="0" result="BackgroundImageFix"/>
      <feColorMatrix in="SourceAlpha" type="matrix" values="0 0 0 0 0 0 0 0 0 0 0 0 0 0 0 0 0 0 127 0" result="hardAlpha"/>
      <feOffset dy="4"/>
      <feGaussianBlur stdDeviation="8"/>
      <feComposite in2="hardAlpha" operator="out"/>
      <feColorMatrix type="matrix" values="0 0 0 0 0 0 0 0 0 0 0 0 0 0 0 0 0 0 0.25 0"/>
      <feBlend mode="normal" in2="BackgroundImageFix" result="effect1_dropShadow"/>
      <feBlend mode="normal" in="SourceGraphic" in2="effect1_dropShadow" result="shape"/>
    </filter>
  </defs>
</svg>
